<svg xmlns="http://www.w3.org/2000/svg" viewBox="0 0 40 40" role="img" aria-label="eClinician">
  <defs>
    <linearGradient id="brand" x1="0" y1="0" x2="40" y2="40" gradientUnits="userSpaceOnUse">
      <stop stop-color="#1e3a8a"/>
      <stop offset=".55" stop-color="#2dd4bf"/>
      <stop offset="1" stop-color="#0f766e"/>
    </linearGradient>
    <linearGradient id="pulse" x1="0" y1="0" x2="40" y2="0" gradientUnits="userSpaceOnUse">
      <stop stop-color="#152b66"/>
      <stop offset="1" stop-color="#0b5852"/>
    </linearGradient>
  </defs>
  <rect width="40" height="40" rx="11" fill="url(#brand)"/>
  <path d="M17 9.5h6A1.5 1.5 0 0 1 24.5 11v4h4a1.5 1.5 0 0 1 1.5 1.5v6a1.5 1.5 0 0 1-1.5 1.5h-4v4a1.5 1.5 0 0 1-1.5 1.5h-6a1.5 1.5 0 0 1-1.5-1.5v-4h-4A1.5 1.5 0 0 1 10 22.5v-6a1.5 1.5 0 0 1 1.5-1.5h4v-4A1.5 1.5 0 0 1 17 9.5Z" fill="#fff" fill-opacity=".95"/>
  <path d="M8 20h5.2l2.4-4.6L19.4 25l2.6-5h8" fill="none" stroke="url(#pulse)" stroke-width="2.4" stroke-linecap="round" stroke-linejoin="round"/>
</svg>
